<svg width="105" height="27" viewBox="0 0 105 27" fill="none" xmlns="http://www.w3.org/2000/svg">
<path d="M17.08 26H0.835V1.25H17.08V5.21H5.245V11.42H15.73V15.425H5.245V21.995H17.08V26ZM21.1384 8.72H24.1984L24.7384 9.98C26.7784 8.99 28.7734 8.495 30.7234 8.495C32.5534 8.495 33.9184 8.9 34.8184 9.71C35.7484 10.52 36.3334 11.465 36.5734 12.545C36.8434 13.625 36.9784 14.84 36.9784 16.19V26H32.7034V15.65C32.7034 14.75 32.4784 13.94 32.0284 13.22C31.5784 12.5 30.7684 12.14 29.5984 12.14C28.5484 12.14 27.1534 12.455 25.4134 13.085V26H21.1384V8.72ZM41.1775 8.72H44.2375L44.7775 9.98C46.8175 8.99 48.8125 8.495 50.7625 8.495C52.5925 8.495 53.9575 8.9 54.8575 9.71C55.7875 10.52 56.3725 11.465 56.6125 12.545C56.8825 13.625 57.0175 14.84 57.0175 16.19V26H52.7425V15.65C52.7425 14.75 52.5175 13.94 52.0675 13.22C51.6175 12.5 50.8075 12.14 49.6375 12.14C48.5875 12.14 47.1925 12.455 45.4525 13.085V26H41.1775V8.72ZM73.9966 25.28C72.6466 26.03 71.0866 26.405 69.3166 26.405C67.5466 26.405 65.9866 26.03 64.6366 25.28C63.3166 24.5 62.2816 23.435 61.5316 22.085C60.8116 20.735 60.4516 19.19 60.4516 17.45C60.4516 14.66 61.2616 12.47 62.8816 10.88C64.5016 9.26 66.6616 8.45 69.3616 8.45C72.0616 8.45 74.2066 9.26 75.7966 10.88C77.4166 12.5 78.2266 14.675 78.2266 17.405C78.2266 19.175 77.8516 20.735 77.1016 22.085C76.3816 23.435 75.3466 24.5 73.9966 25.28ZM72.4666 13.31C71.6266 12.32 70.5766 11.825 69.3166 11.825C68.0866 11.825 67.0366 12.32 66.1666 13.31C65.3266 14.3 64.9066 15.68 64.9066 17.45C64.9066 19.19 65.3266 20.555 66.1666 21.545C67.0066 22.505 68.0566 22.985 69.3166 22.985C70.6366 22.985 71.7016 22.505 72.5116 21.545C73.3516 20.585 73.7716 19.22 73.7716 17.45C73.7716 15.65 73.3366 14.27 72.4666 13.31ZM81.7675 26V8.72H86.0875V26H81.7675ZM81.9925 4.985C82.5325 5.525 83.1775 5.795 83.9275 5.795C84.7075 5.795 85.3525 5.525 85.8625 4.985C86.4025 4.445 86.6725 3.8 86.6725 3.05C86.6725 2.27 86.4025 1.625 85.8625 1.115C85.3525 0.575 84.7075 0.305 83.9275 0.305C83.1775 0.305 82.5325 0.575 81.9925 1.115C81.4525 1.625 81.1825 2.27 81.1825 3.05C81.1825 3.8 81.4525 4.445 81.9925 4.985ZM91.0713 9.62C93.4112 8.84 95.3312 8.45 96.8312 8.45C99.7412 8.45 101.766 9.05 102.906 10.25C104.076 11.45 104.661 13.16 104.661 15.38V26H101.241L100.746 24.785C99.3962 25.865 97.7162 26.405 95.7062 26.405C93.8462 26.405 92.3612 25.925 91.2512 24.965C90.1412 24.005 89.5862 22.775 89.5862 21.275C89.5862 19.595 90.2012 18.29 91.4312 17.36C92.6912 16.4 94.4762 15.86 96.7862 15.74L100.161 15.56C100.161 14.06 99.8912 13.04 99.3513 12.5C98.8112 11.96 97.7462 11.69 96.1562 11.69C94.8062 11.69 93.3362 11.99 91.7462 12.59L91.0713 9.62ZM99.5312 22.625C99.9212 22.415 100.191 22.265 100.341 22.175V18.485L97.2812 18.71C95.0312 18.83 93.9062 19.58 93.9062 20.96C93.9062 21.65 94.1612 22.19 94.6712 22.58C95.1812 22.97 95.8862 23.165 96.7862 23.165C97.3862 23.165 97.8962 23.12 98.3163 23.03C98.7362 22.94 99.1412 22.805 99.5312 22.625Z" fill="black"/>
</svg>
